Coordinates
nRows=6
nColumns=38

# SIMM Motion File Header:
name Coordinates
datacolumns 38
datarows 6
otherdata 1
range 0.73362000000000005000 0.73862000000000005000

Units are S.I. units (second, meters, Newtons, ...)
Angles are in degrees.

endheader
time	pelvis_tilt	pelvis_list	pelvis_rotation	pelvis_tx	pelvis_ty	pelvis_tz	hip_flexion_r	hip_adduction_r	hip_rotation_r	knee_angle_r	ankle_angle_r	subtalar_angle_r	mtp_angle_r	hip_flexion_l	hip_adduction_l	hip_rotation_l	knee_angle_l	ankle_angle_l	subtalar_angle_l	mtp_angle_l	lumbar_extension	lumbar_bending	lumbar_rotation	arm_flex_r	arm_add_r	arm_rot_r	elbow_flex_r	pro_sup_r	wrist_flex_r	wrist_dev_r	arm_flex_l	arm_add_l	arm_rot_l	elbow_flex_l	pro_sup_l	wrist_flex_l	wrist_dev_l
      0.73362000000000005000	     -2.95071242647466560000	      3.39671596255119600000	     -0.36938315969614566000	      1.02772692246466680000	      0.98915054422831672000	     -0.32092372627328247000	     37.92714030597285600000	     -1.17467689921651950000	      2.20774077141774730000	    -78.79982480572476800000	      1.52505971583261760000	      0.00000000000002476982	     -0.00000000000045091613	      6.49673864293470520000	     10.08375586578235100000	      5.60231281651471940000	    -32.76295801691562600000	     15.45651493791553000000	     -0.00000000000005370988	      0.00000000000006036227	     -9.72725673845698150000	     -5.11008976607489010000	     -9.78003345285751810000	    -35.08812788548592500000	     -7.47563618751301460000	     -9.50325105918973100000	     49.41100427108996500000	     61.50829060025100900000	      0.00000000000003954708	      0.00000000000010058984	    -20.83663444279707000000	    -19.02425121229190800000	     -2.77124598336208820000	    109.38777018702713000000	     90.65725488612344000000	     -0.00000000000000706317	     -0.00000000000000385715
      0.73462000000000005000	     -3.03381380398454240000	      3.31660395144621840000	     -0.38018502292538442000	      1.02774141050110000000	      0.98976169703322703000	     -0.32098435165967487000	     38.03194252661124600000	     -1.10618475872814660000	      2.16421414015367610000	    -78.41332193417241600000	      1.54851083424719120000	      0.00000000000002471827	     -0.00000000000045202678	      6.34034782253207840000	     10.00167444484926800000	      5.65771961360719280000	    -32.52574322118295700000	     15.26197731387606600000	     -0.00000000000005427238	      0.00000000000006062139	     -9.63206043382382400000	     -4.99967481138534710000	     -9.80936999828232280000	    -35.20932815119307000000	     -7.51390650000651930000	     -9.50125208987217640000	     49.49442958064656000000	     61.41371189607885800000	      0.00000000000003963705	      0.00000000000010078933	    -20.78578800259389700000	    -18.98797300589023300000	     -2.71753869829312890000	    109.59876888017970000000	     90.54654808117945200000	     -0.00000000000000707719	     -0.00000000000000397430
      0.73562000000000005000	     -3.11616922357322230000	      3.23565120000232390000	     -0.39154077022611300000	      1.02775968446127090000	      0.99038160770594008000	     -0.32104320212900034000	     38.13264701834010100000	     -1.03662012220782710000	      2.11992243284291600000	    -78.02135371813321300000	      1.57050343702792410000	      0.00000000000002466757	     -0.00000000000045313675	      6.18384952839023330000	      9.91806417039664720000	      5.71130041044008950000	    -32.28908936407193400000	     15.06163230498045300000	     -0.00000000000005479786	      0.00000000000006085826	     -9.53726135587021950000	     -4.88837681365346640000	     -9.83765541877827940000	    -35.33062103639864700000	     -7.55271584413716380000	     -9.49871531509873890000	     49.57937133108202200000	     61.32283790211227600000	      0.00000000000003972765	      0.00000000000010098759	    -20.73652588317980900000	    -18.95211904338174900000	     -2.66123779707989480000	    109.81018696673549000000	     90.42728996154501400000	     -0.00000000000000709171	     -0.00000000000000408334
      0.73662000000000005000	     -3.19769649890730490000	      3.15383804164191780000	     -0.40342337952240237000	      1.02778170767782240000	      0.99101019987913397000	     -0.32110027398920599000	     38.22915085639608900000	     -0.96595560633103550000	      2.07487457325865110000	    -77.62392341332301300000	      1.59095766927221200000	      0.00000000000002461632	     -0.00000000000045424691	      6.02721761036246480000	      9.83290305474252160000	      5.76303075451460600000	    -32.05310308874945200000	     14.85548940377959000000	     -0.00000000000005533700	      0.00000000000006108886	     -9.44296998481187270000	     -4.77617556190470970000	     -9.86490949007796660000	    -35.45196469423056100000	     -7.59203962839333090000	     -9.49565612083458000000	     49.66572027350163400000	     61.23570654108655700000	      0.00000000000003981919	      0.00000000000010118643	    -20.68880724970397400000	    -18.91669461403553900000	     -2.60234649260035630000	    110.02195646176634000000	     90.29958185491743400000	     -0.00000000000000710442	     -0.00000000000000418613
      0.73762000000000005000	     -3.27831871972843910000	      3.07114617562881390000	     -0.41580735684936654000	      1.02780744280052280000	      0.99164738857845869000	     -0.32115556140117912000	     38.32135834379486300000	     -0.89416258051672148000	      2.02908519432913350000	    -77.22103464321612900000	      1.60978950146903710000	      0.00000000000002455614	     -0.00000000000045535637	      5.87042844858566240000	      9.74617055010095080000	      5.81288488005759700000	    -31.81788357093731200000	     14.64355941850564900000	     -0.00000000000005589838	      0.00000000000006130035	     -9.34929093429751030000	     -4.66305265628367050000	     -9.89115054639308690000	    -35.57331884244002400000	     -7.63185256767612600000	     -9.49209187333886110000	     49.75337210445379600000	     61.15235013714638500000	      0.00000000000003991129	      0.00000000000010138579	    -20.64259292516386100000	    -18.88170433417499100000	     -2.54087829761812770000	    110.23401015402588000000	     90.16355957856066500000	     -0.00000000000000711662	     -0.00000000000000429752
      0.73862000000000005000	     -3.35796471087937660000	      2.98755888153700910000	     -0.42866874336103938000	      1.02783685171006730000	      0.99229307965902325000	     -0.32120905657961452000	     38.40918158252367900000	     -0.82121143107153449000	      1.98257473351276260000	    -76.81269158937180900000	      1.62691074103946700000	      0.00000000000002449129	     -0.00000000000045646490	      5.71346156058789050000	      9.65784785132991530000	      5.86083575603359820000	    -31.58352290698535500000	     14.42585632990953200000	     -0.00000000000005649043	      0.00000000000006152966	     -9.25632240592441850000	     -4.54899170216300690000	     -9.91639550143607980000	    -35.69464480820236200000	     -7.67212866974112370000	     -9.48804205679278210000	     49.84222739491846700000	     61.07279579327465100000	      0.00000000000004000460	      0.00000000000010158271	    -20.59784549276188400000	    -18.84715215411728200000	     -2.47685692626469050000	    110.44628150644978000000	     90.01939360703801200000	     -0.00000000000000712851	     -0.00000000000000440923
